HIERARCHY
ROOT hip
{
  OFFSET 56.9566 51.3355 34.8025
  CHANNELS 6 Xposition Yposition Zposition Zrotation Xrotation Yrotation
  JOINT abdomen
  {
    OFFSET 0 20.6881 -0.73152
    CHANNELS 3 Zrotation Xrotation Yrotation
    JOINT chest
    {
      OFFSET 0 11.7043 -0.48768
      CHANNELS 3 Zrotation Xrotation Yrotation
      JOINT neck
      {
        OFFSET 0 22.1894 -2.19456
        CHANNELS 3 Zrotation Xrotation Yrotation
        JOINT head
        {
          OFFSET -0.24384 7.07133 1.2192
          CHANNELS 3 Zrotation Xrotation Yrotation
          JOINT leftEye
          {
            OFFSET 4.14528 8.04674 8.04672
            CHANNELS 3 Zrotation Xrotation Yrotation
            End Site
            {
              OFFSET 1 0 0
            }
          }
          JOINT rightEye
          {
            OFFSET -3.6576 8.04674 8.04672
            CHANNELS 3 Zrotation Xrotation Yrotation
            End Site
            {
              OFFSET 1 0 0
            }
          }
        }
      }
      JOINT rCollar
      {
        OFFSET -2.68224 19.2634 -4.8768
        CHANNELS 3 Zrotation Xrotation Yrotation
        JOINT rShldr
        {
          OFFSET -8.77824 -1.95073 1.46304
          CHANNELS 3 Zrotation Xrotation Yrotation
          JOINT rForeArm
          {
            OFFSET -28.1742 -1.7115 0.48768
            CHANNELS 3 Zrotation Xrotation Yrotation
            JOINT rHand
            {
              OFFSET -22.5879 0.773209 7.07136
              CHANNELS 3 Zrotation Xrotation Yrotation
              JOINT rThumb1
              {
                OFFSET -1.2192 -0.487915 3.41376
                CHANNELS 3 Zrotation Xrotation Yrotation
                JOINT rThumb2
                {
                  OFFSET -3.37035 -0.52449 3.41376
                  CHANNELS 3 Zrotation Xrotation Yrotation
                  End Site
                  {
                    OFFSET -1.78271 -1.18214 1.43049
                  }
                }
              }
              JOINT rIndex1
              {
                OFFSET -7.75947 0.938293 5.60832
                CHANNELS 3 Zrotation Xrotation Yrotation
                JOINT rIndex2
                {
                  OFFSET -2.54057 -0.884171 1.56538
                  CHANNELS 3 Zrotation Xrotation Yrotation
                  End Site
                  {
                    OFFSET -1.62519 -0.234802 1.16502
                  }
                }
              }
              JOINT rMid1
              {
                OFFSET -8.24714 1.18213 3.41376
                CHANNELS 3 Zrotation Xrotation Yrotation
                JOINT rMid2
                {
                  OFFSET -3.10165 -0.590103 1.0647
                  CHANNELS 3 Zrotation Xrotation Yrotation
                  End Site
                  {
                    OFFSET -2.48547 -0.328903 0.83742
                  }
                }
              }
              JOINT rRing1
              {
                OFFSET -8.82822 0.546677 1.51678
                CHANNELS 3 Zrotation Xrotation Yrotation
                JOINT rRing2
                {
                  OFFSET -2.60934 -0.819778 -0.0198488
                  CHANNELS 3 Zrotation Xrotation Yrotation
                  End Site
                  {
                    OFFSET -2.33842 -0.294052 0.168128
                  }
                }
              }
              JOINT rPinky1
              {
                OFFSET -8.27202 -0.0477905 -0.4584
                CHANNELS 3 Zrotation Xrotation Yrotation
                JOINT rPinky2
                {
                  OFFSET -1.82734 -0.647385 -0.700984
                  CHANNELS 3 Zrotation Xrotation Yrotation
                  End Site
                  {
                    OFFSET -1.69225 -0.51767 -0.607171
                  }
                }
              }
            }
          }
        }
      }
      JOINT lCollar
      {
        OFFSET 2.68224 19.2634 -4.8768
        CHANNELS 3 Zrotation Xrotation Yrotation
        JOINT lShldr
        {
          OFFSET 8.77824 -1.95073 1.46304
          CHANNELS 3 Zrotation Xrotation Yrotation
          JOINT lForeArm
          {
            OFFSET 28.1742 -1.7115 0.48768
            CHANNELS 3 Zrotation Xrotation Yrotation
            JOINT lHand
            {
              OFFSET 22.5879 0.773209 7.07136
              CHANNELS 3 Zrotation Xrotation Yrotation
              JOINT lThumb1
              {
                OFFSET 1.2192 -0.487915 3.41376
                CHANNELS 3 Zrotation Xrotation Yrotation
                JOINT lThumb2
                {
                  OFFSET 3.37035 -0.52449 3.41376
                  CHANNELS 3 Zrotation Xrotation Yrotation
                  End Site
                  {
                    OFFSET 1.78271 -1.18214 1.43049
                  }
                }
              }
              JOINT lIndex1
              {
                OFFSET 7.75947 0.938293 5.60832
                CHANNELS 3 Zrotation Xrotation Yrotation
                JOINT lIndex2
                {
                  OFFSET 2.54057 -0.884171 1.56538
                  CHANNELS 3 Zrotation Xrotation Yrotation
                  End Site
                  {
                    OFFSET 1.62519 -0.234802 1.16502
                  }
                }
              }
              JOINT lMid1
              {
                OFFSET 8.24714 1.18213 3.41376
                CHANNELS 3 Zrotation Xrotation Yrotation
                JOINT lMid2
                {
                  OFFSET 3.10165 -0.590103 1.0647
                  CHANNELS 3 Zrotation Xrotation Yrotation
                  End Site
                  {
                    OFFSET 2.48547 -0.328903 0.83742
                  }
                }
              }
              JOINT lRing1
              {
                OFFSET 8.82822 0.546677 1.51678
                CHANNELS 3 Zrotation Xrotation Yrotation
                JOINT lRing2
                {
                  OFFSET 2.60934 -0.819778 -0.0198488
                  CHANNELS 3 Zrotation Xrotation Yrotation
                  End Site
                  {
                    OFFSET 2.33842 -0.294052 0.168128
                  }
                }
              }
              JOINT lPinky1
              {
                OFFSET 8.27202 -0.0477905 -0.4584
                CHANNELS 3 Zrotation Xrotation Yrotation
                JOINT lPinky2
                {
                  OFFSET 1.82734 -0.647385 -0.700984
                  CHANNELS 3 Zrotation Xrotation Yrotation
                  End Site
                  {
                    OFFSET 1.69225 -0.51767 -0.607171
                  }
                }
              }
            }
          }
        }
      }
    }
  }
  JOINT rButtock
  {
    OFFSET -8.77824 4.35084 1.2192
    CHANNELS 3 Zrotation Xrotation Yrotation
    JOINT rThigh
    {
      OFFSET 0 -1.70687 -2.19456
      CHANNELS 3 Zrotation Xrotation Yrotation
      JOINT rShin
      {
        OFFSET 0 -36.8199 0.73152
        CHANNELS 3 Zrotation Xrotation Yrotation
        JOINT rFoot
        {
          OFFSET 0.73152 -45.1104 -5.12064
          CHANNELS 3 Zrotation Xrotation Yrotation
          End Site
          {
            OFFSET -1.1221 -3.69964 12.103
          }
        }
      }
    }
  }
  JOINT lButtock
  {
    OFFSET 8.77824 4.35084 1.2192
    CHANNELS 3 Zrotation Xrotation Yrotation
    JOINT lThigh
    {
      OFFSET 0 -1.70687 -2.19456
      CHANNELS 3 Zrotation Xrotation Yrotation
      JOINT lShin
      {
        OFFSET 0 -36.8199 0.73152
        CHANNELS 3 Zrotation Xrotation Yrotation
        JOINT lFoot
        {
          OFFSET -0.73152 -45.1104 -5.12064
          CHANNELS 3 Zrotation Xrotation Yrotation
          End Site
          {
            OFFSET 1.1221 -3.69964 12.103
          }
        }
      }
    }
  }
}
MOTION
Frames:	8
Frame Time:	0.00833333
56.9154 51.0672 35.1513 0.135239 18.4654 -1.78021 -3.78437 1.6351 1.5396 0.0175046 1.95797 0.335984 7.97289 5.15435 -0.711929 -3.89588 -48.5759 -4.99399 -0 0 0 -0 0 0 4.9303e-015 3.6e-013 -9.9734e-015 27.2177 -21.7237 79.6224 -9.23486 -3.68921 16.3743 -1.14442 28.8702 4.44412 -4.14778e-009 7.80542e-009 -9.0772e-010 -7.17997e-009 1.454e-008 -1.47057e-009 -4.14778e-009 7.80542e-009 -9.07728e-010 7.73091 5.47488 0.417314 -4.14778e-009 7.80543e-009 -9.07718e-010 2.90554 0.965183 0.102902 -4.14777e-009 7.80544e-009 -9.0772e-010 10.2786 0.731802 0.0259123 -4.14778e-009 7.80543e-009 -9.07713e-010 2.22167 -0.733487 -0.20892 4.95647e-015 3.59998e-013 -1.02498e-014 8 4.72161e-009 -2.60833e-010 -7.36838e-011 4.56632e-010 -2.93307e-011 2.90088e-010 2.26257e-009 -4.19447e-010 4.70141e-010 5.91709e-009 -9.7513e-010 8.11985e-010 1.0225e-008 -1.68457e-009 4.70139e-010 5.91709e-009 -9.75122e-010 -7.73091 5.47488 -0.417314 4.70143e-010 5.91709e-009 -9.7513e-010 -2.90554 0.965183 -0.102902 4.70135e-010 5.91709e-009 -9.75129e-010 -10.2786 0.731801 -0.0259123 4.70145e-010 5.91709e-009 -9.75137e-010 -2.22167 -0.733487 0.20892 -2.03217e-016 0 -3.88251e-019 -27.0625 -68.4259 -20.8602 0.00934341 1.31943 0.0842402 0.625182 2.25795 -0.0465594 2.03217e-016 0 3.88251e-019 27.3532 -70.8749 17.6867 0.00187648 -0.993469 0.0153305 -0.608377 3.57548 0.0299403 
56.9095 51.0677 35.1425 0.0939888 18.4747 -1.76448 -3.71541 1.63928 1.55903 -0.0453361 1.97736 0.34353 8.25944 4.71085 -0.725926 -4.42862 -47.9893 -5.36166 -0 0 0 -0 0 0 -2.17653e-014 3.97544e-013 1.26123e-014 27.5373 -21.768 79.7232 -9.21373 -3.67709 16.3351 -1.16351 29.0836 4.48344 -4.65669e-009 6.76899e-009 -1.2407e-009 -8.06603e-009 1.29123e-008 -2.03238e-009 -4.65668e-009 6.76899e-009 -1.24071e-009 7.73091 5.47488 0.417314 -4.65669e-009 6.769e-009 -1.2407e-009 2.90554 0.965183 0.102902 -4.65668e-009 6.769e-009 -1.2407e-009 10.2786 0.731802 0.0259123 -4.65668e-009 6.76899e-009 -1.24069e-009 2.22167 -0.733487 -0.20892 -2.16973e-014 3.97545e-013 1.23184e-014 8 4.72161e-009 -2.60833e-010 -1.07823e-010 5.21762e-010 -2.30959e-011 7.98829e-011 2.62349e-009 -3.75587e-010 -6.21932e-011 6.84548e-009 -8.66651e-010 -1.08172e-010 1.18298e-008 -1.4973e-009 -6.21963e-011 6.84548e-009 -8.66644e-010 -7.73091 5.47488 -0.417314 -6.21924e-011 6.84548e-009 -8.66655e-010 -2.90554 0.965183 -0.102902 -6.22014e-011 6.84548e-009 -8.66651e-010 -10.2786 0.731801 -0.0259123 -6.21908e-011 6.84548e-009 -8.6666e-010 -2.22167 -0.733487 0.20892 -2.03217e-016 0 -3.88251e-019 -27.1096 -68.4308 -20.9513 0.00937126 1.31924 0.0844843 0.626059 2.25772 -0.0466785 2.03217e-016 0 3.88251e-019 27.4127 -70.9134 17.7164 0.00186696 -0.993732 0.0152457 -0.609151 3.57611 0.0300452 
56.9115 51.0715 35.1281 0.083877 18.4779 -1.7523 -3.68656 1.6495 1.56707 -0.0798854 1.98558 0.347075 8.37361 4.50492 -0.742394 -4.61685 -47.685 -5.52089 -0 0 0 -0 0 0 -3.53292e-014 3.91207e-013 2.49972e-014 27.6816 -21.7882 79.7646 -9.20486 -3.672 16.3186 -1.17115 29.1681 4.49908 -4.5376e-009 5.66764e-009 -1.31673e-009 -7.86197e-009 1.09944e-008 -2.16572e-009 -4.5376e-009 5.66763e-009 -1.31674e-009 7.73091 5.47488 0.417314 -4.53761e-009 5.66764e-009 -1.31673e-009 2.90554 0.965183 0.102902 -4.5376e-009 5.66764e-009 -1.31673e-009 10.2786 0.731802 0.0259123 -4.5376e-009 5.66764e-009 -1.31672e-009 2.22167 -0.733487 -0.20892 -3.52417e-014 3.9121e-013 2.4699e-014 8 4.72161e-009 -2.60833e-010 -1.18275e-010 5.17177e-010 -1.74612e-011 -4.23278e-011 2.61854e-009 -3.17877e-010 -3.51159e-010 6.82504e-009 -7.29129e-010 -6.07629e-010 1.17946e-008 -1.25976e-009 -3.51163e-010 6.82505e-009 -7.29123e-010 -7.73091 5.47488 -0.417314 -3.51159e-010 6.82505e-009 -7.29136e-010 -2.90554 0.965183 -0.102902 -3.51168e-010 6.82505e-009 -7.29131e-010 -10.2786 0.731801 -0.0259123 -3.51158e-010 6.82505e-009 -7.29139e-010 -2.22167 -0.733487 0.20892 -2.03217e-016 0 -3.88251e-019 -27.2 -68.4272 -21.0506 0.00937056 1.31585 0.0844666 0.626529 2.2589 -0.0467282 2.03217e-016 0 3.88251e-019 27.3916 -70.9495 17.6948 0.00185491 -0.992359 0.0151429 -0.609687 3.57595 0.0301241 
56.9333 51.0743 35.1036 0.123831 18.4717 -1.74367 -3.72113 1.66884 1.55622 -0.0714026 1.97525 0.344139 8.28816 4.56592 -0.772876 -4.44071 -47.6649 -5.4809 -0 0 0 -0 0 0 -2.82176e-014 3.11072e-013 2.40739e-014 27.568 -21.7718 79.719 -9.21223 -3.67622 16.3323 -1.16167 29.0637 4.47974 -3.33098e-009 4.13347e-009 -9.81652e-010 -5.77071e-009 8.02464e-009 -1.61535e-009 -3.33097e-009 4.13346e-009 -9.8166e-010 7.73091 5.47488 0.417314 -3.33098e-009 4.13347e-009 -9.81647e-010 2.90554 0.965183 0.102902 -3.33097e-009 4.13347e-009 -9.81653e-010 10.2786 0.731801 0.0259123 -3.33097e-009 4.13347e-009 -9.81645e-010 2.22167 -0.733487 -0.20892 -2.81471e-014 3.11075e-013 2.37913e-014 8 4.72161e-009 -2.60833e-010 -8.93231e-011 3.94742e-010 -1.08985e-011 -2.26052e-011 1.99578e-009 -2.1649e-010 -2.44919e-010 5.20207e-009 -4.94247e-010 -4.23897e-010 8.98956e-009 -8.53882e-010 -2.44923e-010 5.20207e-009 -4.94239e-010 -7.73091 5.47488 -0.417314 -2.44919e-010 5.20207e-009 -4.94253e-010 -2.90554 0.965183 -0.102902 -2.44928e-010 5.20207e-009 -4.94249e-010 -10.2786 0.731801 -0.0259123 -2.44918e-010 5.20208e-009 -4.94256e-010 -2.22167 -0.733487 0.20892 -2.03217e-016 0 -3.88251e-019 -27.375 -68.4091 -21.1779 0.00932312 1.30665 0.0840193 0.626488 2.26267 -0.0466821 2.03217e-016 0 3.88251e-019 27.2363 -70.9856 17.5869 0.00183672 -0.988106 0.014993 -0.609983 3.57444 0.0301832 
56.9575 51.0764 35.0791 0.193275 18.4611 -1.73471 -3.79154 1.69319 1.53287 -0.0393051 1.95512 0.337095 8.07415 4.78651 -0.812264 -4.02018 -47.8117 -5.30882 -0 0 0 -0 0 0 -8.07031e-015 1.72345e-013 1.50331e-014 27.2766 -21.7329 79.6113 -9.23191 -3.68752 16.3688 -1.14021 28.824 4.43557 -1.29607e-009 2.04412e-009 -3.59942e-010 -2.24284e-009 3.86853e-009 -5.89837e-010 -1.29606e-009 2.04411e-009 -3.59954e-010 7.73091 5.47488 0.417314 -1.29607e-009 2.04412e-009 -3.5994e-010 2.90554 0.965183 0.102902 -1.29606e-009 2.04411e-009 -3.59947e-010 10.2786 0.731801 0.0259123 -1.29607e-009 2.04412e-009 -3.59941e-010 2.22167 -0.733487 -0.20892 -8.04111e-015 1.72347e-013 1.47784e-014 8 4.72161e-009 -2.60833e-010 -3.30237e-011 1.84105e-010 -2.77464e-012 8.05326e-011 9.14272e-010 -7.38787e-011 1.02721e-010 2.38798e-009 -1.6613e-010 1.77142e-010 4.12583e-009 -2.86839e-010 1.02716e-010 2.38799e-009 -1.66118e-010 -7.73091 5.47488 -0.417314 1.02721e-010 2.38798e-009 -1.66134e-010 -2.90554 0.965183 -0.102902 1.02713e-010 2.38798e-009 -1.6613e-010 -10.2786 0.731801 -0.0259123 1.02723e-010 2.38799e-009 -1.66137e-010 -2.22167 -0.733487 0.20892 -2.03217e-016 0 -3.88251e-019 -27.6096 -68.3812 -21.3317 0.00924664 1.2935 0.0833061 0.626159 2.26812 -0.0465795 2.03217e-016 0 3.88251e-019 26.9962 -71.0256 17.4229 0.00181332 -0.98192 0.0148016 -0.610179 3.5721 0.030237 
56.9746 51.0792 35.0606 0.265066 18.4497 -1.72832 -3.86596 1.71871 1.50914 -0.00219213 1.93521 0.329742 7.74043 5.18115 -0.83845 -3.32348 -48.2102 -4.94291 -0 0 0 -0 0 0 1.38694e-014 3.09356e-014 9.72956e-016 26.9335 -21.6892 79.4845 -9.25791 -3.70246 16.417 -1.11568 28.5442 4.38436 7.27562e-010 3.19107e-010 2.94902e-010 1.26612e-009 3.4069e-010 4.92979e-010 7.27569e-010 3.19102e-010 2.94887e-010 7.73091 5.47488 0.417314 7.27561e-010 3.19115e-010 2.94901e-010 2.90554 0.965183 0.102902 7.27565e-010 3.19102e-010 2.94893e-010 10.2786 0.731801 0.0259123 7.27563e-010 3.19117e-010 2.94898e-010 2.22167 -0.733487 -0.20892 1.38554e-014 3.09357e-014 7.49326e-016 8 4.72161e-009 -2.60833e-010 2.43019e-011 -2.86632e-011 2.99698e-012 1.89612e-010 -1.78393e-010 4.46841e-011 4.65479e-010 -4.54913e-010 1.046e-010 8.04297e-010 -7.87659e-010 1.81057e-010 4.65474e-010 -4.54914e-010 1.04615e-010 -7.73091 5.47488 -0.417314 4.65479e-010 -4.54916e-010 1.04598e-010 -2.90554 0.965183 -0.102902 4.65473e-010 -4.54916e-010 1.04601e-010 -10.2786 0.731801 -0.0259123 4.65482e-010 -4.54913e-010 1.04595e-010 -2.22167 -0.733487 0.20892 -2.03217e-016 0 -3.88251e-019 -27.8291 -68.3537 -21.4675 0.00916837 1.28091 0.082582 0.62561 2.2733 -0.0464507 2.03217e-016 0 3.88251e-019 26.7536 -71.0613 17.2581 0.00179223 -0.975895 0.0146299 -0.610172 3.56984 0.0302606 
56.9891 51.0816 35.059 0.312057 18.441 -1.72737 -3.9126 1.74152 1.49715 0.0213461 1.92555 0.325881 7.2952 5.7643 -0.829294 -2.3067 -48.9434 -4.31266 -0 0 0 -0 0 0 2.63581e-014 -5.72496e-014 -1.50082e-014 26.6644 -21.6591 79.3812 -9.28424 -3.71763 16.4659 -1.09633 28.3197 4.34351 1.90036e-009 -1.2203e-010 7.29387e-010 3.30066e-009 -7.44278e-010 1.21524e-009 1.90037e-009 -1.22033e-010 7.29371e-010 7.73091 5.47488 0.417314 1.90036e-009 -1.22019e-010 7.29384e-010 2.90554 0.965183 0.102902 1.90036e-009 -1.22035e-010 7.29377e-010 10.2786 0.731801 0.0259123 1.90036e-009 -1.22017e-010 7.29381e-010 2.22167 -0.733487 -0.20892 2.63216e-014 -5.7251e-014 -1.5207e-014 8 4.72161e-009 -2.60833e-010 5.63323e-011 -1.57491e-010 2.5031e-012 2.27158e-010 -8.34644e-010 7.39256e-011 6.17077e-010 -2.16432e-009 1.67319e-010 1.06637e-009 -3.74199e-009 2.89497e-010 6.17071e-010 -2.16432e-009 1.67335e-010 -7.73091 5.47488 -0.417314 6.17077e-010 -2.16433e-009 1.67319e-010 -2.90554 0.965183 -0.102902 6.17071e-010 -2.16433e-009 1.67321e-010 -10.2786 0.731801 -0.0259123 6.1708e-010 -2.16432e-009 1.67316e-010 -2.22167 -0.733487 0.20892 -2.03217e-016 0 -3.88251e-019 -27.9589 -68.337 -21.5414 0.00911599 1.27338 0.0821016 0.624912 2.27626 -0.0463261 2.03217e-016 0 3.88251e-019 26.5916 -71.0848 17.1479 0.00178091 -0.972119 0.0145389 -0.609854 3.56855 0.0302288 
56.9944 51.0826 35.0548 0.322979 18.4362 -1.73382 -3.91936 1.7621 1.50205 0.0269402 1.92765 0.326996 6.60952 6.72025 -0.763866 -0.603373 -50.2992 -3.14872 -0 0 0 -0 0 0 2.44175e-014 -5.65037e-014 -3.73199e-014 26.497 -21.6481 79.3083 -9.3125 -3.73395 16.5183 -1.08392 28.1747 4.31719 1.66311e-009 1.88231e-009 8.33904e-010 2.8925e-009 2.76337e-009 1.40055e-009 1.66311e-009 1.88231e-009 8.33889e-010 7.73091 5.47488 0.417314 1.6631e-009 1.88232e-009 8.339e-010 2.90554 0.965183 0.102902 1.66311e-009 1.8823e-009 8.33894e-010 10.2786 0.731801 0.0259123 1.66311e-009 1.88232e-009 8.33898e-010 2.22167 -0.733487 -0.20892 2.43904e-014 -5.65059e-014 -3.74958e-014 8 4.72161e-009 -2.60833e-010 4.73401e-011 -1.49227e-010 -1.02689e-011 1.51191e-010 -7.78484e-010 -6.4163e-011 4.31601e-010 -2.0234e-009 -1.60769e-010 7.45662e-010 -3.49822e-009 -2.77382e-010 4.31596e-010 -2.0234e-009 -1.60754e-010 -7.73091 5.47488 -0.417314 4.31601e-010 -2.02341e-009 -1.60767e-010 -2.90554 0.965183 -0.102902 4.31595e-010 -2.0234e-009 -1.60765e-010 -10.2786 0.731801 -0.0259123 4.31605e-010 -2.0234e-009 -1.60768e-010 -2.22167 -0.733487 0.20892 -2.03217e-016 0 -3.88251e-019 -27.954 -68.3354 -21.521 0.00910138 1.27334 0.0819741 0.623856 2.27578 -0.0461907 2.03217e-016 0 3.88251e-019 26.5455 -71.0918 17.1169 0.00178409 -0.971621 0.014568 -0.608977 3.5688 0.0300997 
